ISO-10303-21;
HEADER;
/* Generated by software containing ST-Developer
 * from STEP Tools, Inc. (www.steptools.com) 
 */

FILE_DESCRIPTION(
/* description */ (''),
/* implementation_level */ '2;1');

FILE_NAME(
/* name */ '2] Bottom + Top + Extrude.step',
/* time_stamp */ '2026-06-30T10:19:37+01:00',
/* author */ (''),
/* organization */ (''),
/* preprocessor_version */ 'ST-DEVELOPER v20.1',
/* originating_system */ 'Autodesk Translation Framework v15.8.0.0',
/* authorisation */ '');

FILE_SCHEMA (('AUTOMOTIVE_DESIGN { 1 0 10303 214 3 1 1 }'));
ENDSEC;

DATA;
#10=MECHANICAL_DESIGN_GEOMETRIC_PRESENTATION_REPRESENTATION('',(#13),#455);
#11=SHAPE_REPRESENTATION_RELATIONSHIP('SRR','None',#462,#12);
#12=ADVANCED_BREP_SHAPE_REPRESENTATION('',(#14),#454);
#13=STYLED_ITEM('',(#471),#14);
#14=MANIFOLD_SOLID_BREP('Body1',#267);
#15=PLANE('',#284);
#16=PLANE('',#288);
#17=PLANE('',#289);
#18=PLANE('',#290);
#19=PLANE('',#294);
#20=PLANE('',#298);
#21=PLANE('',#299);
#22=PLANE('',#300);
#23=PLANE('',#301);
#24=PLANE('',#302);
#25=FACE_OUTER_BOUND('',#39,.T.);
#26=FACE_OUTER_BOUND('',#40,.T.);
#27=FACE_OUTER_BOUND('',#41,.T.);
#28=FACE_OUTER_BOUND('',#42,.T.);
#29=FACE_OUTER_BOUND('',#43,.T.);
#30=FACE_OUTER_BOUND('',#44,.T.);
#31=FACE_OUTER_BOUND('',#45,.T.);
#32=FACE_OUTER_BOUND('',#46,.T.);
#33=FACE_OUTER_BOUND('',#47,.T.);
#34=FACE_OUTER_BOUND('',#48,.T.);
#35=FACE_OUTER_BOUND('',#49,.T.);
#36=FACE_OUTER_BOUND('',#50,.T.);
#37=FACE_OUTER_BOUND('',#51,.T.);
#38=FACE_OUTER_BOUND('',#52,.T.);
#39=EDGE_LOOP('',(#177,#178,#179,#180));
#40=EDGE_LOOP('',(#181,#182,#183,#184));
#41=EDGE_LOOP('',(#185,#186,#187,#188));
#42=EDGE_LOOP('',(#189,#190,#191,#192));
#43=EDGE_LOOP('',(#193,#194,#195,#196));
#44=EDGE_LOOP('',(#197,#198,#199,#200));
#45=EDGE_LOOP('',(#201,#202,#203,#204));
#46=EDGE_LOOP('',(#205,#206,#207,#208));
#47=EDGE_LOOP('',(#209,#210,#211,#212));
#48=EDGE_LOOP('',(#213,#214,#215,#216));
#49=EDGE_LOOP('',(#217,#218,#219,#220,#221,#222,#223,#224,#225,#226,#227,
#228));
#50=EDGE_LOOP('',(#229,#230,#231,#232));
#51=EDGE_LOOP('',(#233,#234,#235,#236,#237,#238,#239,#240,#241,#242,#243,
#244));
#52=EDGE_LOOP('',(#245,#246,#247,#248));
#53=LINE('',#383,#81);
#54=LINE('',#386,#82);
#55=LINE('',#389,#83);
#56=LINE('',#391,#84);
#57=LINE('',#392,#85);
#58=LINE('',#398,#86);
#59=LINE('',#401,#87);
#60=LINE('',#403,#88);
#61=LINE('',#404,#89);
#62=LINE('',#407,#90);
#63=LINE('',#409,#91);
#64=LINE('',#410,#92);
#65=LINE('',#413,#93);
#66=LINE('',#415,#94);
#67=LINE('',#416,#95);
#68=LINE('',#422,#96);
#69=LINE('',#425,#97);
#70=LINE('',#427,#98);
#71=LINE('',#428,#99);
#72=LINE('',#434,#100);
#73=LINE('',#438,#101);
#74=LINE('',#439,#102);
#75=LINE('',#440,#103);
#76=LINE('',#443,#104);
#77=LINE('',#444,#105);
#78=LINE('',#447,#106);
#79=LINE('',#448,#107);
#80=LINE('',#450,#108);
#81=VECTOR('',#309,10.);
#82=VECTOR('',#312,10.);
#83=VECTOR('',#315,10.);
#84=VECTOR('',#316,10.);
#85=VECTOR('',#317,10.);
#86=VECTOR('',#324,10.);
#87=VECTOR('',#327,10.);
#88=VECTOR('',#328,10.);
#89=VECTOR('',#329,10.);
#90=VECTOR('',#332,10.);
#91=VECTOR('',#333,10.);
#92=VECTOR('',#334,10.);
#93=VECTOR('',#337,10.);
#94=VECTOR('',#338,10.);
#95=VECTOR('',#339,10.);
#96=VECTOR('',#346,10.);
#97=VECTOR('',#349,10.);
#98=VECTOR('',#350,10.);
#99=VECTOR('',#351,10.);
#100=VECTOR('',#358,10.);
#101=VECTOR('',#361,10.);
#102=VECTOR('',#362,10.);
#103=VECTOR('',#363,10.);
#104=VECTOR('',#366,10.);
#105=VECTOR('',#367,10.);
#106=VECTOR('',#370,10.);
#107=VECTOR('',#371,10.);
#108=VECTOR('',#374,10.);
#109=CIRCLE('',#282,10.0000056028374);
#110=CIRCLE('',#283,10.0000056028374);
#111=CIRCLE('',#286,7.24999522790369);
#112=CIRCLE('',#287,7.24999522790369);
#113=CIRCLE('',#292,7.24999655783176);
#114=CIRCLE('',#293,7.24999655783176);
#115=CIRCLE('',#296,10.0000035762787);
#116=CIRCLE('',#297,10.0000035762787);
#117=VERTEX_POINT('',#379);
#118=VERTEX_POINT('',#380);
#119=VERTEX_POINT('',#382);
#120=VERTEX_POINT('',#384);
#121=VERTEX_POINT('',#388);
#122=VERTEX_POINT('',#390);
#123=VERTEX_POINT('',#394);
#124=VERTEX_POINT('',#396);
#125=VERTEX_POINT('',#400);
#126=VERTEX_POINT('',#402);
#127=VERTEX_POINT('',#406);
#128=VERTEX_POINT('',#408);
#129=VERTEX_POINT('',#412);
#130=VERTEX_POINT('',#414);
#131=VERTEX_POINT('',#418);
#132=VERTEX_POINT('',#420);
#133=VERTEX_POINT('',#424);
#134=VERTEX_POINT('',#426);
#135=VERTEX_POINT('',#430);
#136=VERTEX_POINT('',#432);
#137=VERTEX_POINT('',#436);
#138=VERTEX_POINT('',#437);
#139=VERTEX_POINT('',#442);
#140=VERTEX_POINT('',#446);
#141=EDGE_CURVE('',#117,#118,#109,.T.);
#142=EDGE_CURVE('',#118,#119,#53,.T.);
#143=EDGE_CURVE('',#120,#119,#110,.T.);
#144=EDGE_CURVE('',#117,#120,#54,.T.);
#145=EDGE_CURVE('',#117,#121,#55,.T.);
#146=EDGE_CURVE('',#122,#120,#56,.T.);
#147=EDGE_CURVE('',#121,#122,#57,.T.);
#148=EDGE_CURVE('',#121,#123,#111,.T.);
#149=EDGE_CURVE('',#124,#122,#112,.T.);
#150=EDGE_CURVE('',#123,#124,#58,.T.);
#151=EDGE_CURVE('',#125,#123,#59,.T.);
#152=EDGE_CURVE('',#126,#124,#60,.T.);
#153=EDGE_CURVE('',#125,#126,#61,.T.);
#154=EDGE_CURVE('',#127,#125,#62,.T.);
#155=EDGE_CURVE('',#128,#126,#63,.T.);
#156=EDGE_CURVE('',#127,#128,#64,.T.);
#157=EDGE_CURVE('',#127,#129,#65,.T.);
#158=EDGE_CURVE('',#130,#128,#66,.T.);
#159=EDGE_CURVE('',#129,#130,#67,.T.);
#160=EDGE_CURVE('',#129,#131,#113,.T.);
#161=EDGE_CURVE('',#132,#130,#114,.T.);
#162=EDGE_CURVE('',#131,#132,#68,.T.);
#163=EDGE_CURVE('',#133,#131,#69,.T.);
#164=EDGE_CURVE('',#134,#132,#70,.T.);
#165=EDGE_CURVE('',#133,#134,#71,.T.);
#166=EDGE_CURVE('',#135,#133,#115,.T.);
#167=EDGE_CURVE('',#136,#134,#116,.T.);
#168=EDGE_CURVE('',#136,#135,#72,.T.);
#169=EDGE_CURVE('',#137,#138,#73,.T.);
#170=EDGE_CURVE('',#137,#119,#74,.T.);
#171=EDGE_CURVE('',#138,#118,#75,.T.);
#172=EDGE_CURVE('',#138,#139,#76,.T.);
#173=EDGE_CURVE('',#139,#135,#77,.T.);
#174=EDGE_CURVE('',#139,#140,#78,.T.);
#175=EDGE_CURVE('',#140,#136,#79,.T.);
#176=EDGE_CURVE('',#140,#137,#80,.T.);
#177=ORIENTED_EDGE('',*,*,#141,.T.);
#178=ORIENTED_EDGE('',*,*,#142,.T.);
#179=ORIENTED_EDGE('',*,*,#143,.F.);
#180=ORIENTED_EDGE('',*,*,#144,.F.);
#181=ORIENTED_EDGE('',*,*,#145,.F.);
#182=ORIENTED_EDGE('',*,*,#144,.T.);
#183=ORIENTED_EDGE('',*,*,#146,.F.);
#184=ORIENTED_EDGE('',*,*,#147,.F.);
#185=ORIENTED_EDGE('',*,*,#148,.F.);
#186=ORIENTED_EDGE('',*,*,#147,.T.);
#187=ORIENTED_EDGE('',*,*,#149,.F.);
#188=ORIENTED_EDGE('',*,*,#150,.F.);
#189=ORIENTED_EDGE('',*,*,#151,.T.);
#190=ORIENTED_EDGE('',*,*,#150,.T.);
#191=ORIENTED_EDGE('',*,*,#152,.F.);
#192=ORIENTED_EDGE('',*,*,#153,.F.);
#193=ORIENTED_EDGE('',*,*,#154,.T.);
#194=ORIENTED_EDGE('',*,*,#153,.T.);
#195=ORIENTED_EDGE('',*,*,#155,.F.);
#196=ORIENTED_EDGE('',*,*,#156,.F.);
#197=ORIENTED_EDGE('',*,*,#157,.F.);
#198=ORIENTED_EDGE('',*,*,#156,.T.);
#199=ORIENTED_EDGE('',*,*,#158,.F.);
#200=ORIENTED_EDGE('',*,*,#159,.F.);
#201=ORIENTED_EDGE('',*,*,#160,.F.);
#202=ORIENTED_EDGE('',*,*,#159,.T.);
#203=ORIENTED_EDGE('',*,*,#161,.F.);
#204=ORIENTED_EDGE('',*,*,#162,.F.);
#205=ORIENTED_EDGE('',*,*,#163,.T.);
#206=ORIENTED_EDGE('',*,*,#162,.T.);
#207=ORIENTED_EDGE('',*,*,#164,.F.);
#208=ORIENTED_EDGE('',*,*,#165,.F.);
#209=ORIENTED_EDGE('',*,*,#166,.T.);
#210=ORIENTED_EDGE('',*,*,#165,.T.);
#211=ORIENTED_EDGE('',*,*,#167,.F.);
#212=ORIENTED_EDGE('',*,*,#168,.T.);
#213=ORIENTED_EDGE('',*,*,#169,.F.);
#214=ORIENTED_EDGE('',*,*,#170,.T.);
#215=ORIENTED_EDGE('',*,*,#142,.F.);
#216=ORIENTED_EDGE('',*,*,#171,.F.);
#217=ORIENTED_EDGE('',*,*,#172,.F.);
#218=ORIENTED_EDGE('',*,*,#171,.T.);
#219=ORIENTED_EDGE('',*,*,#141,.F.);
#220=ORIENTED_EDGE('',*,*,#145,.T.);
#221=ORIENTED_EDGE('',*,*,#148,.T.);
#222=ORIENTED_EDGE('',*,*,#151,.F.);
#223=ORIENTED_EDGE('',*,*,#154,.F.);
#224=ORIENTED_EDGE('',*,*,#157,.T.);
#225=ORIENTED_EDGE('',*,*,#160,.T.);
#226=ORIENTED_EDGE('',*,*,#163,.F.);
#227=ORIENTED_EDGE('',*,*,#166,.F.);
#228=ORIENTED_EDGE('',*,*,#173,.F.);
#229=ORIENTED_EDGE('',*,*,#174,.F.);
#230=ORIENTED_EDGE('',*,*,#173,.T.);
#231=ORIENTED_EDGE('',*,*,#168,.F.);
#232=ORIENTED_EDGE('',*,*,#175,.F.);
#233=ORIENTED_EDGE('',*,*,#176,.F.);
#234=ORIENTED_EDGE('',*,*,#175,.T.);
#235=ORIENTED_EDGE('',*,*,#167,.T.);
#236=ORIENTED_EDGE('',*,*,#164,.T.);
#237=ORIENTED_EDGE('',*,*,#161,.T.);
#238=ORIENTED_EDGE('',*,*,#158,.T.);
#239=ORIENTED_EDGE('',*,*,#155,.T.);
#240=ORIENTED_EDGE('',*,*,#152,.T.);
#241=ORIENTED_EDGE('',*,*,#149,.T.);
#242=ORIENTED_EDGE('',*,*,#146,.T.);
#243=ORIENTED_EDGE('',*,*,#143,.T.);
#244=ORIENTED_EDGE('',*,*,#170,.F.);
#245=ORIENTED_EDGE('',*,*,#176,.T.);
#246=ORIENTED_EDGE('',*,*,#169,.T.);
#247=ORIENTED_EDGE('',*,*,#172,.T.);
#248=ORIENTED_EDGE('',*,*,#174,.T.);
#249=CYLINDRICAL_SURFACE('',#281,10.0000056028374);
#250=CYLINDRICAL_SURFACE('',#285,7.24999522790369);
#251=CYLINDRICAL_SURFACE('',#291,7.24999655783176);
#252=CYLINDRICAL_SURFACE('',#295,10.0000035762787);
#253=ADVANCED_FACE('',(#25),#249,.F.);
#254=ADVANCED_FACE('',(#26),#15,.T.);
#255=ADVANCED_FACE('',(#27),#250,.T.);
#256=ADVANCED_FACE('',(#28),#16,.T.);
#257=ADVANCED_FACE('',(#29),#17,.T.);
#258=ADVANCED_FACE('',(#30),#18,.T.);
#259=ADVANCED_FACE('',(#31),#251,.T.);
#260=ADVANCED_FACE('',(#32),#19,.T.);
#261=ADVANCED_FACE('',(#33),#252,.F.);
#262=ADVANCED_FACE('',(#34),#20,.T.);
#263=ADVANCED_FACE('',(#35),#21,.T.);
#264=ADVANCED_FACE('',(#36),#22,.T.);
#265=ADVANCED_FACE('',(#37),#23,.T.);
#266=ADVANCED_FACE('',(#38),#24,.F.);
#267=CLOSED_SHELL('',(#253,#254,#255,#256,#257,#258,#259,#260,#261,#262,
#263,#264,#265,#266));
#268=DERIVED_UNIT_ELEMENT(#270,1.);
#269=DERIVED_UNIT_ELEMENT(#457,-3.);
#270=(
MASS_UNIT()
NAMED_UNIT(*)
SI_UNIT(.KILO.,.GRAM.)
);
#271=DERIVED_UNIT((#268,#269));
#272=MEASURE_REPRESENTATION_ITEM('density measure',
POSITIVE_RATIO_MEASURE(7850.),#271);
#273=PROPERTY_DEFINITION_REPRESENTATION(#278,#275);
#274=PROPERTY_DEFINITION_REPRESENTATION(#279,#276);
#275=REPRESENTATION('material name',(#277),#454);
#276=REPRESENTATION('density',(#272),#454);
#277=DESCRIPTIVE_REPRESENTATION_ITEM('Steel','Steel');
#278=PROPERTY_DEFINITION('material property','material name',#464);
#279=PROPERTY_DEFINITION('material property','density of part',#464);
#280=AXIS2_PLACEMENT_3D('',#377,#303,#304);
#281=AXIS2_PLACEMENT_3D('',#378,#305,#306);
#282=AXIS2_PLACEMENT_3D('',#381,#307,#308);
#283=AXIS2_PLACEMENT_3D('',#385,#310,#311);
#284=AXIS2_PLACEMENT_3D('',#387,#313,#314);
#285=AXIS2_PLACEMENT_3D('',#393,#318,#319);
#286=AXIS2_PLACEMENT_3D('',#395,#320,#321);
#287=AXIS2_PLACEMENT_3D('',#397,#322,#323);
#288=AXIS2_PLACEMENT_3D('',#399,#325,#326);
#289=AXIS2_PLACEMENT_3D('',#405,#330,#331);
#290=AXIS2_PLACEMENT_3D('',#411,#335,#336);
#291=AXIS2_PLACEMENT_3D('',#417,#340,#341);
#292=AXIS2_PLACEMENT_3D('',#419,#342,#343);
#293=AXIS2_PLACEMENT_3D('',#421,#344,#345);
#294=AXIS2_PLACEMENT_3D('',#423,#347,#348);
#295=AXIS2_PLACEMENT_3D('',#429,#352,#353);
#296=AXIS2_PLACEMENT_3D('',#431,#354,#355);
#297=AXIS2_PLACEMENT_3D('',#433,#356,#357);
#298=AXIS2_PLACEMENT_3D('',#435,#359,#360);
#299=AXIS2_PLACEMENT_3D('',#441,#364,#365);
#300=AXIS2_PLACEMENT_3D('',#445,#368,#369);
#301=AXIS2_PLACEMENT_3D('',#449,#372,#373);
#302=AXIS2_PLACEMENT_3D('',#451,#375,#376);
#303=DIRECTION('axis',(0.,0.,1.));
#304=DIRECTION('refdir',(1.,0.,0.));
#305=DIRECTION('center_axis',(0.,1.,0.));
#306=DIRECTION('ref_axis',(-0.800000109076456,0.,0.599999854564698));
#307=DIRECTION('center_axis',(0.,-1.,0.));
#308=DIRECTION('ref_axis',(-0.800000109076456,0.,0.599999854564698));
#309=DIRECTION('',(0.,1.,0.));
#310=DIRECTION('center_axis',(0.,-1.,0.));
#311=DIRECTION('ref_axis',(-0.800000109076456,0.,0.599999854564698));
#312=DIRECTION('',(0.,1.,0.));
#313=DIRECTION('center_axis',(0.764911198117051,0.,-0.64413574578278));
#314=DIRECTION('ref_axis',(-0.64413574578278,0.,-0.764911198117051));
#315=DIRECTION('',(0.64413574578278,0.,0.764911198117051));
#316=DIRECTION('',(-0.64413574578278,0.,-0.764911198117051));
#317=DIRECTION('',(0.,1.,0.));
#318=DIRECTION('center_axis',(0.,1.,0.));
#319=DIRECTION('ref_axis',(0.724137786452393,0.,-0.689655324224955));
#320=DIRECTION('center_axis',(0.,-1.,0.));
#321=DIRECTION('ref_axis',(0.724137786452393,0.,-0.689655324224955));
#322=DIRECTION('center_axis',(0.,1.,0.));
#323=DIRECTION('ref_axis',(0.724137786452393,0.,-0.689655324224955));
#324=DIRECTION('',(0.,1.,0.));
#325=DIRECTION('center_axis',(1.,0.,0.));
#326=DIRECTION('ref_axis',(0.,0.,-1.));
#327=DIRECTION('',(0.,0.,-1.));
#328=DIRECTION('',(0.,0.,-1.));
#329=DIRECTION('',(0.,1.,0.));
#330=DIRECTION('center_axis',(0.,0.,1.));
#331=DIRECTION('ref_axis',(1.,0.,0.));
#332=DIRECTION('',(1.,0.,0.));
#333=DIRECTION('',(1.,0.,0.));
#334=DIRECTION('',(0.,1.,0.));
#335=DIRECTION('center_axis',(-1.,0.,0.));
#336=DIRECTION('ref_axis',(0.,0.,1.));
#337=DIRECTION('',(0.,0.,-1.));
#338=DIRECTION('',(0.,0.,1.));
#339=DIRECTION('',(0.,1.,0.));
#340=DIRECTION('center_axis',(0.,1.,0.));
#341=DIRECTION('ref_axis',(-1.,0.,0.));
#342=DIRECTION('center_axis',(0.,-1.,0.));
#343=DIRECTION('ref_axis',(-1.,0.,0.));
#344=DIRECTION('center_axis',(0.,1.,0.));
#345=DIRECTION('ref_axis',(-1.,0.,0.));
#346=DIRECTION('',(0.,1.,0.));
#347=DIRECTION('center_axis',(-0.764911198117051,0.,-0.64413574578278));
#348=DIRECTION('ref_axis',(-0.64413574578278,0.,0.764911198117051));
#349=DIRECTION('',(-0.64413574578278,0.,0.764911198117051));
#350=DIRECTION('',(-0.64413574578278,0.,0.764911198117051));
#351=DIRECTION('',(0.,1.,0.));
#352=DIRECTION('center_axis',(0.,1.,0.));
#353=DIRECTION('ref_axis',(1.,0.,0.));
#354=DIRECTION('center_axis',(0.,-1.,0.));
#355=DIRECTION('ref_axis',(1.,0.,0.));
#356=DIRECTION('center_axis',(0.,-1.,0.));
#357=DIRECTION('ref_axis',(1.,0.,0.));
#358=DIRECTION('',(0.,-1.,0.));
#359=DIRECTION('center_axis',(1.,0.,0.));
#360=DIRECTION('ref_axis',(0.,1.,0.));
#361=DIRECTION('',(0.,-1.,0.));
#362=DIRECTION('',(0.,0.,1.));
#363=DIRECTION('',(0.,0.,1.));
#364=DIRECTION('center_axis',(0.,-1.,0.));
#365=DIRECTION('ref_axis',(1.,0.,0.));
#366=DIRECTION('',(-1.,0.,0.));
#367=DIRECTION('',(0.,0.,1.));
#368=DIRECTION('center_axis',(-1.,0.,0.));
#369=DIRECTION('ref_axis',(0.,-1.,0.));
#370=DIRECTION('',(0.,1.,0.));
#371=DIRECTION('',(0.,0.,1.));
#372=DIRECTION('center_axis',(0.,1.,0.));
#373=DIRECTION('ref_axis',(-1.,0.,0.));
#374=DIRECTION('',(1.,0.,0.));
#375=DIRECTION('center_axis',(0.,0.,1.));
#376=DIRECTION('ref_axis',(1.,0.,0.));
#377=CARTESIAN_POINT('',(0.,0.,0.));
#378=CARTESIAN_POINT('Origin',(10.0000056028374,0.,122.));
#379=CARTESIAN_POINT('',(2.00000002980232,0.,128.000001907349));
#380=CARTESIAN_POINT('',(0.,0.,122.));
#381=CARTESIAN_POINT('Origin',(10.0000056028374,0.,122.));
#382=CARTESIAN_POINT('',(0.,29.,122.));
#383=CARTESIAN_POINT('',(0.,29.,122.));
#384=CARTESIAN_POINT('',(2.00000002980232,29.,128.000001907349));
#385=CARTESIAN_POINT('Origin',(10.0000056028374,29.,122.));
#386=CARTESIAN_POINT('',(2.00000002980232,0.,128.000001907349));
#387=CARTESIAN_POINT('Origin',(18.0000002682209,0.,147.000002190471));
#388=CARTESIAN_POINT('',(18.0000002682209,0.,147.000002190471));
#389=CARTESIAN_POINT('',(2.00000002980232,0.,128.000001907349));
#390=CARTESIAN_POINT('',(18.0000002682209,29.,147.000002190471));
#391=CARTESIAN_POINT('',(2.00000002980232,29.,128.000001907349));
#392=CARTESIAN_POINT('',(18.0000002682209,0.,147.000002190471));
#393=CARTESIAN_POINT('Origin',(12.7500047720963,0.,152.));
#394=CARTESIAN_POINT('',(20.,0.,152.));
#395=CARTESIAN_POINT('Origin',(12.7500047720963,0.,152.));
#396=CARTESIAN_POINT('',(20.,29.,152.));
#397=CARTESIAN_POINT('Origin',(12.7500047720963,29.,152.));
#398=CARTESIAN_POINT('',(20.,0.,152.));
#399=CARTESIAN_POINT('Origin',(20.,0.,165.));
#400=CARTESIAN_POINT('',(20.,0.,165.));
#401=CARTESIAN_POINT('',(20.,0.,165.));
#402=CARTESIAN_POINT('',(20.,29.,165.));
#403=CARTESIAN_POINT('',(20.,29.,165.));
#404=CARTESIAN_POINT('',(20.,0.,165.));
#405=CARTESIAN_POINT('Origin',(-54.,0.,165.));
#406=CARTESIAN_POINT('',(-54.,0.,165.));
#407=CARTESIAN_POINT('',(-54.,0.,165.));
#408=CARTESIAN_POINT('',(-54.,29.,165.));
#409=CARTESIAN_POINT('',(-54.,29.,165.));
#410=CARTESIAN_POINT('',(-54.,0.,165.));
#411=CARTESIAN_POINT('Origin',(-54.,0.,152.));
#412=CARTESIAN_POINT('',(-54.,0.,152.));
#413=CARTESIAN_POINT('',(-54.,0.,165.));
#414=CARTESIAN_POINT('',(-54.,29.,152.));
#415=CARTESIAN_POINT('',(-54.,29.,165.));
#416=CARTESIAN_POINT('',(-54.,0.,152.));
#417=CARTESIAN_POINT('Origin',(-46.7500034421682,0.,152.));
#418=CARTESIAN_POINT('',(-52.0000007748604,0.,147.000002190471));
#419=CARTESIAN_POINT('Origin',(-46.7500034421682,0.,152.));
#420=CARTESIAN_POINT('',(-52.0000007748604,29.,147.000002190471));
#421=CARTESIAN_POINT('Origin',(-46.7500034421682,29.,152.));
#422=CARTESIAN_POINT('',(-52.0000007748604,0.,147.000002190471));
#423=CARTESIAN_POINT('Origin',(-36.0000005364418,0.,128.000001907349));
#424=CARTESIAN_POINT('',(-36.0000005364418,0.,128.000001907349));
#425=CARTESIAN_POINT('',(-36.0000005364418,0.,128.000001907349));
#426=CARTESIAN_POINT('',(-36.0000005364418,29.,128.000001907349));
#427=CARTESIAN_POINT('',(-36.0000005364418,29.,128.000001907349));
#428=CARTESIAN_POINT('',(-36.0000005364418,0.,128.000001907349));
#429=CARTESIAN_POINT('Origin',(-44.0000035762787,0.,122.));
#430=CARTESIAN_POINT('',(-34.,0.,122.));
#431=CARTESIAN_POINT('Origin',(-44.0000035762787,0.,122.));
#432=CARTESIAN_POINT('',(-34.,29.,122.));
#433=CARTESIAN_POINT('Origin',(-44.0000035762787,29.,122.));
#434=CARTESIAN_POINT('',(-34.,0.,122.));
#435=CARTESIAN_POINT('Origin',(0.,0.,0.));
#436=CARTESIAN_POINT('',(0.,29.,0.));
#437=CARTESIAN_POINT('',(0.,0.,0.));
#438=CARTESIAN_POINT('',(0.,29.,0.));
#439=CARTESIAN_POINT('',(0.,29.,0.));
#440=CARTESIAN_POINT('',(0.,0.,0.));
#441=CARTESIAN_POINT('Origin',(-34.,0.,0.));
#442=CARTESIAN_POINT('',(-34.,0.,0.));
#443=CARTESIAN_POINT('',(0.,0.,0.));
#444=CARTESIAN_POINT('',(-34.,0.,0.));
#445=CARTESIAN_POINT('Origin',(-34.,29.,0.));
#446=CARTESIAN_POINT('',(-34.,29.,0.));
#447=CARTESIAN_POINT('',(-34.,0.,0.));
#448=CARTESIAN_POINT('',(-34.,29.,0.));
#449=CARTESIAN_POINT('Origin',(0.,29.,0.));
#450=CARTESIAN_POINT('',(-34.,29.,0.));
#451=CARTESIAN_POINT('Origin',(-17.,14.5,0.));
#452=UNCERTAINTY_MEASURE_WITH_UNIT(LENGTH_MEASURE(0.01),#456,
'DISTANCE_ACCURACY_VALUE',
'Maximum model space distance between geometric entities at asserted c
onnectivities');
#453=UNCERTAINTY_MEASURE_WITH_UNIT(LENGTH_MEASURE(0.01),#456,
'DISTANCE_ACCURACY_VALUE',
'Maximum model space distance between geometric entities at asserted c
onnectivities');
#454=(
GEOMETRIC_REPRESENTATION_CONTEXT(3)
GLOBAL_UNCERTAINTY_ASSIGNED_CONTEXT((#452))
GLOBAL_UNIT_ASSIGNED_CONTEXT((#456,#458,#459))
REPRESENTATION_CONTEXT('','3D')
);
#455=(
GEOMETRIC_REPRESENTATION_CONTEXT(3)
GLOBAL_UNCERTAINTY_ASSIGNED_CONTEXT((#453))
GLOBAL_UNIT_ASSIGNED_CONTEXT((#456,#458,#459))
REPRESENTATION_CONTEXT('','3D')
);
#456=(
LENGTH_UNIT()
NAMED_UNIT(*)
SI_UNIT(.MILLI.,.METRE.)
);
#457=(
LENGTH_UNIT()
NAMED_UNIT(*)
SI_UNIT($,.METRE.)
);
#458=(
NAMED_UNIT(*)
PLANE_ANGLE_UNIT()
SI_UNIT($,.RADIAN.)
);
#459=(
NAMED_UNIT(*)
SI_UNIT($,.STERADIAN.)
SOLID_ANGLE_UNIT()
);
#460=SHAPE_DEFINITION_REPRESENTATION(#461,#462);
#461=PRODUCT_DEFINITION_SHAPE('',$,#464);
#462=SHAPE_REPRESENTATION('',(#280),#454);
#463=PRODUCT_DEFINITION_CONTEXT('part definition',#468,'design');
#464=PRODUCT_DEFINITION('2026-06-29-14-10-45-336',
'2] Bottom + Top + Extrude',#465,#463);
#465=PRODUCT_DEFINITION_FORMATION('',$,#470);
#466=PRODUCT_RELATED_PRODUCT_CATEGORY('2] Bottom + Top + Extrude',
'2] Bottom + Top + Extrude',(#470));
#467=APPLICATION_PROTOCOL_DEFINITION('international standard',
'automotive_design',2009,#468);
#468=APPLICATION_CONTEXT(
'Core Data for Automotive Mechanical Design Process');
#469=PRODUCT_CONTEXT('part definition',#468,'mechanical');
#470=PRODUCT('2026-06-29-14-10-45-336','2] Bottom + Top + Extrude',$,(#469));
#471=PRESENTATION_STYLE_ASSIGNMENT((#472));
#472=SURFACE_STYLE_USAGE(.BOTH.,#473);
#473=SURFACE_SIDE_STYLE('',(#474));
#474=SURFACE_STYLE_FILL_AREA(#475);
#475=FILL_AREA_STYLE('Steel - Satin',(#476));
#476=FILL_AREA_STYLE_COLOUR('Steel - Satin',#477);
#477=COLOUR_RGB('Steel - Satin',0.627450980392157,0.627450980392157,0.627450980392157);
ENDSEC;
END-ISO-10303-21;
